<?xml version="1.0" encoding="UTF-8"?>
<svg id="Layer_2" data-name="Layer 2" xmlns="http://www.w3.org/2000/svg" xmlns:xlink="http://www.w3.org/1999/xlink" viewBox="0 0 283.62 283.62">
  <defs>
    <style>
      .cls-1 {
        fill: #e3e3e3;
      }

      .cls-2 {
        fill: url(#linear-gradient-2);
      }

      .cls-3 {
        fill: url(#linear-gradient);
        opacity: .1;
      }
    </style>
    <linearGradient id="linear-gradient" x1="0" y1="141.81" x2="283.62" y2="141.81" gradientUnits="userSpaceOnUse">
      <stop offset="0" stop-color="#fcfafd"/>
      <stop offset="1" stop-color="#e3e3e3"/>
    </linearGradient>
    <linearGradient id="linear-gradient-2" x1="89.92" y1="137.2" x2="89.92" y2="190.57" xlink:href="#linear-gradient"/>
  </defs>
  <g id="Layer_1-2" data-name="Layer 1">
    <g>
      <rect class="cls-3" width="283.62" height="283.62" rx="39.68" ry="39.68"/>
      <path class="cls-2" d="M141.81,103.32v139.61l-95.07-68.31c-5.47-3.93-8.71-10.25-8.71-16.98V55.3c0-2.67,2.16-4.83,4.83-4.83h0c36.53,0,71.78,28.44,98.95,52.85h0Z"/>
      <path class="cls-1" d="M141.81,103.32v139.61l95.07-68.31c5.47-3.93,8.71-10.25,8.71-16.98V55.3c0-2.67-2.16-4.83-4.83-4.83h0c-36.53,0-71.78,28.44-98.95,52.85h0Z"/>
    </g>
  </g>
</svg>